<?xml version="1.0" encoding="UTF-8"?>
<svg xmlns="http://www.w3.org/2000/svg" version="1.1" xmlns:xlink="http://www.w3.org/1999/xlink" viewBox="0 0 85 85">
  <defs>
    <style>
      .cls-1 {
        fill: none;
      }

      .cls-2 {
        fill: #9f8be7;
      }

      .cls-3 {
        fill: #ddf160;
      }

      .cls-4 {
        clip-path: url(#clippath);
      }
    </style>
    <clipPath id="clippath">
      <path class="cls-1" d="M42.5,0C4.4,0,0,25.7,0,42.5s4.4,42.5,42.5,42.5,42.5-25.7,42.5-42.5S80.6,0,42.5,0Z"/>
    </clipPath>
  </defs>
  <!-- Generator: Adobe Illustrator 28.7.1, SVG Export Plug-In . SVG Version: 1.2.0 Build 142)  -->
  <g>
    <g id="Layer_1">
      <g class="cls-4">
        <rect class="cls-2" y="0" width="85" height="85"/>
        <path class="cls-3" d="M51,52.4h1.4c.8,0,1.4.6,1.4,1.4v5.7c0,.8-.6,1.4-1.4,1.4h-1.4c-.8,0-1.4-.6-1.4-1.4v-5.7c0-.8.6-1.4,1.4-1.4ZM31.2,56.7v2.8c0,.8.6,1.4,1.4,1.4h1.4c.8,0,1.4-.6,1.4-1.4v-5.7c0-.8-.6-1.4-1.4-1.4h-1.4c-.8,0-1.4.6-1.4,1.4v2.8h0ZM59.5,32.6v1.4c0,.8-.6,1.4-1.4,1.4h-1.4c-.8,0-1.4-.6-1.4-1.4v-1.4c0-.8.6-1.4,1.4-1.4h1.4c.8,0,1.4.6,1.4,1.4ZM52.4,39.7h1.4c.8,0,1.4-.6,1.4-1.4v-1.4c0-.8-.6-1.4-1.4-1.4h-1.4c-.8,0-1.4.6-1.4,1.4v1.4c0,.8.6,1.4,1.4,1.4ZM42.5,39.7h-7.1c-.8,0-1.4.6-1.4,1.4v1.4c0,.8.6,1.4,1.4,1.4h14.2c.8,0,1.4-.6,1.4-1.4v-1.4c0-.8-.6-1.4-1.4-1.4h-7.1,0ZM29.7,36.8v1.4c0,.8.6,1.4,1.4,1.4h1.4c.8,0,1.4-.6,1.4-1.4v-1.4c0-.8-.6-1.4-1.4-1.4h-1.4c-.8,0-1.4.6-1.4,1.4ZM25.5,32.6v1.4c0,.8.6,1.4,1.4,1.4h1.4c.8,0,1.4-.6,1.4-1.4v-1.4c0-.8-.6-1.4-1.4-1.4h-1.4c-.8,0-1.4.6-1.4,1.4ZM21.2,39.7v7.1c0,.8.6,1.4,1.4,1.4h1.4c.8,0,1.4-.6,1.4-1.4v-9.9c0-.8-.6-1.4-1.4-1.4h-1.4c-.8,0-1.4.6-1.4,1.4v2.8h0ZM17,52.4v2.8c0,.8-.6,1.4-1.4,1.4h-4.3c-.8,0-1.4.6-1.4,1.4v1.4c0,.8.6,1.4,1.4,1.4h1.4c.8,0,1.4.6,1.4,1.4v1.4c0,.8-.6,1.4-1.4,1.4h-1.4c-.8,0-1.4.6-1.4,1.4v1.4c0,.8.6,1.4,1.4,1.4h1.4c.8,0,1.4.6,1.4,1.4v14.2c0,.8.6,1.4,1.4,1.4h1.4c.8,0,1.4-.6,1.4-1.4v-9.9c0-.8.6-1.4,1.4-1.4h5.7c.8,0,1.4-.6,1.4-1.4v-1.4c0-.8-.6-1.4-1.4-1.4h-5.7c-.8,0-1.4-.6-1.4-1.4v-9.9c0-.8.6-1.4,1.4-1.4s1.4-.6,1.4-1.4v-5.7c0-.8-.6-1.4-1.4-1.4h-1.4c-.8,0-1.4.6-1.4,1.4v2.8h0ZM63.8,39.7v-2.8c0-.8-.6-1.4-1.4-1.4h-1.4c-.8,0-1.4.6-1.4,1.4v9.9c0,.8.6,1.4,1.4,1.4h1.4c.8,0,1.4-.6,1.4-1.4v-7.1h0ZM75.1,59.5v-1.4c0-.8-.6-1.4-1.4-1.4h-4.3c-.8,0-1.4-.6-1.4-1.4v-5.7c0-.8-.6-1.4-1.4-1.4h-1.4c-.8,0-1.4.6-1.4,1.4v5.7c0,.8.6,1.4,1.4,1.4s1.4.6,1.4,1.4v9.9c0,.8-.6,1.4-1.4,1.4h-5.7c-.8,0-1.4.6-1.4,1.4v1.4c0,.8.6,1.4,1.4,1.4h5.7c.8,0,1.4.6,1.4,1.4v9.9c0,.8.6,1.4,1.4,1.4h1.4c.8,0,1.4-.6,1.4-1.4v-14.2c0-.8.6-1.4,1.4-1.4h1.4c.8,0,1.4-.6,1.4-1.4v-1.4c0-.8-.6-1.4-1.4-1.4h-1.4c-.8,0-1.4-.6-1.4-1.4v-1.4c0-.8.6-1.4,1.4-1.4h1.4c.8,0,1.4-.6,1.4-1.4h0Z"/>
      </g>
    </g>
  </g>
</svg>